<svg xmlns="http://www.w3.org/2000/svg" width="107.625" height="36.69" viewBox="0 0 107.625 36.69">
  <defs>
    <style>
      .cls-1 {
        fill: #fff;
        fill-rule: evenodd;
      }
    </style>
  </defs>
  <path id="Лого" class="cls-1" d="M736.6,2379.28a2.025,2.025,0,0,0,.553-0.1v1.33a3.2,3.2,0,0,1-1.175.21,1.665,1.665,0,0,1-1.66-.97,4.8,4.8,0,0,1-3.128,1.07c-1.5,0-2.9-.83-2.9-2.54,0-2.13,1.97-2.78,3.7-2.78a10.9,10.9,0,0,1,2.161.24v-0.29c0-1.04-.761-1.77-2.178-1.77a7.359,7.359,0,0,0-2.99.64v-1.69a10.024,10.024,0,0,1,3.18-.55c2.351,0,3.837,1.12,3.837,3.63v2.97a0.537,0.537,0,0,0,.605.6m-6.412-1.12a1.353,1.353,0,0,0,1.555,1.23,3.365,3.365,0,0,0,2.4-.99V2377a9.994,9.994,0,0,0-1.8-.21c-1.054,0-2.16.33-2.16,1.37m12.305-6.08a4.944,4.944,0,0,1,2.558.64v1.69a4.075,4.075,0,0,0-2.3-.69,2.737,2.737,0,1,0-.034,5.46,4.985,4.985,0,0,0,2.419-.64v1.71a6.245,6.245,0,0,1-2.748.57,4.188,4.188,0,0,1-4.476-4.3,4.3,4.3,0,0,1,4.58-4.44m12.115,7.2a2.025,2.025,0,0,0,.553-0.1v1.33a3.189,3.189,0,0,1-1.175.21,1.665,1.665,0,0,1-1.659-.97,4.8,4.8,0,0,1-3.128,1.07c-1.5,0-2.9-.83-2.9-2.54,0-2.13,1.971-2.78,3.7-2.78a10.9,10.9,0,0,1,2.16.24v-0.29c0-1.04-.76-1.77-2.178-1.77a7.354,7.354,0,0,0-2.989.64v-1.69a10.018,10.018,0,0,1,3.18-.55c2.35,0,3.836,1.12,3.836,3.63v2.97a0.537,0.537,0,0,0,.605.6m-6.412-1.12a1.353,1.353,0,0,0,1.556,1.23,3.365,3.365,0,0,0,2.4-.99V2377a9.993,9.993,0,0,0-1.8-.21c-1.055,0-2.161.33-2.161,1.37m16.678-9.66v12.1h-1.659v-1.32a3.868,3.868,0,0,1-3.18,1.54,4.378,4.378,0,0,1,0-8.74,3.86,3.86,0,0,1,2.99,1.29v-4.87h1.849Zm-4.511,5.2a2.756,2.756,0,0,0,0,5.5,2.881,2.881,0,0,0,2.644-1.75v-2.02a2.9,2.9,0,0,0-2.644-1.73m10.508-1.62c3.3,0,4.442,2.66,3.906,5.06h-6.239c0.208,1.49,1.659,2.11,3.18,2.11a6.013,6.013,0,0,0,2.627-.59v1.59a7.164,7.164,0,0,1-2.973.57c-2.54,0-4.7-1.45-4.7-4.37a4.155,4.155,0,0,1,4.2-4.37m0.087,1.53a2.269,2.269,0,0,0-2.437,2.15h4.6a1.96,1.96,0,0,0-2.16-2.15m5.7,6.99v-8.3H778.3v1.04a3.8,3.8,0,0,1,2.765-1.26,2.816,2.816,0,0,1,2.592,1.33,4.089,4.089,0,0,1,2.9-1.33,3.042,3.042,0,0,1,3.145,3.33v5.19h-1.849v-5.14a1.578,1.578,0,0,0-1.642-1.74,2.775,2.775,0,0,0-2.056,1.12c0.017,0.19.034,0.38,0.034,0.57v5.19h-1.849v-5.14a1.578,1.578,0,0,0-1.642-1.74,2.927,2.927,0,0,0-2.2,1.28v5.6h-1.849Zm21.206-8.3H799.8l-3.888,9.42c-0.9,2.16-2.074,2.89-3.336,2.89a5.1,5.1,0,0,1-1.089-.14v-1.58a2.772,2.772,0,0,0,.847.13c0.9,0,1.573-.64,2.057-1.94l0.173-.41-3.941-8.37H792.6l2.8,6.26Zm-67.134-18.33v4.72a3.782,3.782,0,0,1,2.678-1.14,3.231,3.231,0,0,1,3.422,3.39v5.13h-1.849v-4.89a1.8,1.8,0,0,0-1.935-1.99,2.906,2.906,0,0,0-2.316,1.39v5.49h-1.85v-12.1h1.85Zm11.164,0.85v2.96h3.008v1.62H741.9v3.8c0,1.09.5,1.45,1.573,1.45a4.6,4.6,0,0,0,1.676-.32v1.59a6.9,6.9,0,0,1-2.229.36,2.542,2.542,0,0,1-2.852-2.73v-4.15H738.58v-1.62h1.486v-2.51Zm5.374,11.25v-8.29h1.642v1.03a3.8,3.8,0,0,1,2.765-1.26,2.837,2.837,0,0,1,2.593,1.33,4.124,4.124,0,0,1,2.9-1.33,3.05,3.05,0,0,1,3.146,3.34v5.18h-1.85v-5.13a1.585,1.585,0,0,0-1.642-1.75,2.787,2.787,0,0,0-2.056,1.13c0.017,0.19.035,0.38,0.035,0.57v5.18h-1.85v-5.13a1.585,1.585,0,0,0-1.642-1.75,2.956,2.956,0,0,0-2.2,1.28v5.6h-1.849Zm15.754,0h1.849v-12.1h-1.849v12.1Zm-56.2-13.52-0.152-.02-14.484,1.52v26.55l14.484,8.61,14.484-8.61v-26.55Zm12.438,26.97-12.59,7.49-12.589-7.49v-10.88l12.535,7.46,0.021,1.35-8.6-5.12-0.013,1.32,8.634,5.18,0.021,1.39-8.631-5.13-0.012,1.31,8.633,5.19,8.716-5.22v-1.31h-0.01v-4.29l3.884-2.31v11.06Zm-0.011-12.48-3.444,2.03-1.59.94-7.582-4.51-0.013,1.31,6.481,3.86-0.057.03-0.14.08-0.92.54-5.351-3.18-0.013,1.31,4.224,2.52-1,.66-0.024.02-3.19-1.88-0.013,1.31,2.094,1.23-2.133,1.28-12.473-7.41,12.491-7.51h0Zm0.011-1.32-12.658-7.46h0l-12.518,7.45v-9.95l12.589-1.32,12.59,1.32v9.96Z" transform="translate(-692.188 -2352.53)"/>
</svg>
